# xmcd
#
# Track frame offsets:
#	150
#	24936
#	53587
#	78763
#	106552
#	138948
#	158692
#	184032
#	213509
#	240317
#
# Disc length: 3587 seconds
#
# Revision: 0
# Processed by: cddbd v1.5.2PL0 Copyright (c) Steve Scherf et al.
# Submitted via: EZCDAudioConverter 2.1.7.1
#
DISCID=670e010a
DTITLE=Lonnie Liston Smith and The Cosmic Echoes - Astral Traveling
DYEAR=1900
DGENRE=
TTITLE0=Astral Traveling
TTITLE1=Let Us Go Into The House Of The Lord
TTITLE2=Rejuvenation
TTITLE3=I Mani (Faith)
TTITLE4=In Search Of Truth
TTITLE5=Aspirations
TTITLE6=Astral Traveling [Alternate]
TTITLE7=Rejuvenation [Alternate]
TTITLE8=I Mani (Faith) [Alternate]
TTITLE9=In Search Of Truth [Alternate]
EXTD=
EXTT0=
EXTT1=
EXTT2=
EXTT3=
EXTT4=
EXTT5=
EXTT6=
EXTT7=
EXTT8=
EXTT9=
PLAYORDER=
